<svg id="Layer_4_copy" data-name="Layer 4 copy" xmlns="http://www.w3.org/2000/svg" viewBox="0 0 35 35"><defs><style>.cls-1{fill:#993638;}.cls-2{fill:#fff;}</style></defs><title>Artboard 1</title><circle class="cls-1" cx="17.5" cy="17.5" r="17.5"/><path class="cls-2" d="M17.5,13.59a14.41,14.41,0,0,1,5.29,1c1.16.5,2.63,1.23,3.1,2.43.24.58.72,1.82.2,2.64-.74,1-.61,1.23-2.66.56-1.77-.44-2.15-.21-2.1-1.45s.38-1.91-.34-2.06a11.59,11.59,0,0,0-3.49-.61Z"/><path class="cls-2" d="M17.5,13.59a14.41,14.41,0,0,0-5.29,1c-1.16.5-2.63,1.23-3.1,2.43-.24.58-.72,1.82-.2,2.64.74,1,.61,1.23,2.66.56,1.77-.44,2.15-.21,2.1-1.45s-.38-1.91.34-2.06a11.59,11.59,0,0,1,3.49-.61Z"/></svg>