<svg id="Layer_4_copy" data-name="Layer 4 copy" xmlns="http://www.w3.org/2000/svg" viewBox="0 0 35 35"><defs><style>.cls-1{fill:#0f222f;}.cls-2{fill:#fff;}</style></defs><title>Artboard 1</title><circle class="cls-1" cx="17.5" cy="17.5" r="17.5"/><path class="cls-2" d="M20.2,16.74V12.4a.92.92,0,0,0-.92-.92H14.93Z"/><path class="cls-2" d="M12,11.48H10.7a.91.91,0,0,0-.91.91V21.9a.91.91,0,0,0,.91.91h8.58a.92.92,0,0,0,.92-.91V19.68Z"/><rect class="cls-2" x="16.53" y="6.6" width="2.08" height="21.12" rx="1.04" ry="1.04" transform="translate(-6.99 17.45) rotate(-45)"/><path class="cls-2" d="M25,21.57a1.07,1.07,0,0,0,.41-.84V13.55a1.06,1.06,0,1,0-2.12,0v6.31Z"/><polygon class="cls-2" points="23.57 20.14 23.61 12.78 21.2 15.05 21.2 17.78 23.57 20.14"/></svg>