<svg id="Layer_4_copy" data-name="Layer 4 copy" xmlns="http://www.w3.org/2000/svg" viewBox="0 0 35 35"><defs><style>.cls-1{fill:#0f222f;}.cls-2{fill:#fff;}</style></defs><title>Artboard 1</title><circle class="cls-1" cx="17.5" cy="17.5" r="17.5"/><path class="cls-2" d="M17.3,10.62a.63.63,0,0,0-.44.18h0l-3.67,3.75H10.4a.83.83,0,0,0-.83.83V19.3a.83.83,0,0,0,.83.82h2.75l3.71,3.68h0a.57.57,0,0,0,.42.17.61.61,0,0,0,.61-.61V11.23A.62.62,0,0,0,17.3,10.62Z"/><rect class="cls-2" x="21.74" y="13.87" width="1.16" height="7.01" rx="0.58" ry="0.58" transform="translate(18.82 -10.7) rotate(45)"/><rect class="cls-2" x="21.74" y="13.87" width="1.16" height="7.01" rx="0.58" ry="0.58" transform="translate(-5.75 20.87) rotate(-45)"/></svg>